<?xml version="1.0"?>
<svg version="1.1" xmlns="http://www.w3.org/2000/svg" width="100px" height="50px" style=""><path fill="#ff890a" d="M50.751953125,38.685546875q0-0.08203125,0.0546875-0.5810546875t0.1435546875-1.216796875t0.1982421875-1.544921875t0.19140625-1.5654296875t0.1435546875-1.298828125t0.0615234375-0.751953125q-0.109375-0.0546875-0.2666015625-0.1572265625t-0.1572265625-0.2392578125q0-0.19140625,0.1845703125-0.3076171875t0.3212890625-0.1708984375q0.0546875-0.697265625,0.13671875-1.94140625t0.2529296875-2.6865234375t0.478515625-2.92578125t0.8134765625-2.693359375t1.216796875-1.9755859375t1.75-0.765625t1.72265625,0.65625t1.1142578125,1.708984375t0.65625,2.337890625t0.341796875,2.556640625t0.1435546875,2.37890625t0.0546875,1.77734375q0.02734375,0.423828125,0.205078125,0.5673828125t0.3896484375,0.1982421875t0.3828125,0.123046875t0.1708984375,0.341796875q0,0.314453125-0.3828125,0.4375t-0.6015625,0.150390625q0.13671875,1.708984375,0.3759765625,3.36328125t0.6357421875,3.3359375q0.0546875,0.314453125,0.150390625,0.6357421875t0.095703125,0.6220703125q0,0.21875-0.150390625,0.3623046875t-0.3896484375,0.2255859375t-0.478515625,0.109375t-0.4033203125,0.02734375q-0.615234375,0-1.0390625-0.232421875t-0.560546875-0.888671875q-0.369140625-1.763671875-0.724609375-3.705078125q-0.30078125-1.681640625-0.30078125-3.267578125q0-0.24609375,0.013671875-0.4921875q-1.1484375,0-2.310546875,0.0546875t-2.228515625,0.41015625q-0.02734375,0.369140625-0.13671875,1.39453125t-0.24609375,2.201171875t-0.2802734375,2.2490234375t-0.1708984375,1.5244140625q-0.02734375,0.19140625-0.2802734375,0.3623046875t-0.546875,0.1845703125t-0.51953125-0.1845703125t-0.2255859375-0.7041015625z M53.30859375,30.400390625q1.06640625-0.24609375,2.1396484375-0.287109375t2.1669921875-0.095703125q-0.0546875-0.341796875-0.02734375-0.7041015625t0.02734375-0.7314453125q0-0.806640625-0.041015625-1.873046875t-0.123046875-2.16015625t-0.2119140625-2.1533203125t-0.2939453125-1.88671875t-0.3486328125-1.3193359375t-0.4033203125-0.4921875q-0.423828125,0.02734375-0.7998046875,0.7314453125t-0.68359375,1.791015625t-0.560546875,2.43359375t-0.423828125,2.6318359375t-0.2802734375,2.392578125t-0.13671875,1.72265625z M64.56287109375,30.4755859375q-0.0341796875-0.4580078125,0.0546875-0.8408203125t0.35546875-0.6220703125t0.8544921875-0.2392578125q0.13671875,0,0.3349609375,0.0341796875t0.3896484375,0.0888671875t0.3212890625,0.1640625t0.1298828125,0.30078125l0,1.544921875q0.533203125-0.615234375,1.162109375-0.8818359375t1.435546875-0.2666015625q0.615234375,0,1.216796875,0.2802734375t1.134765625,0.7451171875t0.9228515625,1.025390625t0.5673828125,1.12109375q0.109375-0.505859375,0.24609375-1.2373046875t0.4033203125-1.4013671875t0.7041015625-1.1484375t1.162109375-0.478515625q0.779296875,0,1.3125,0.560546875t0.8681640625,1.4560546875t0.505859375,2.0029296875t0.2529296875,2.1875t0.08203125,2.0166015625l0,1.4697265625q0,0.1640625-0.123046875,0.2666015625t-0.3076171875,0.1572265625t-0.3828125,0.068359375t-0.3076171875,0.013671875q-0.423828125,0-0.7724609375-0.1298828125t-0.3486328125-0.6630859375l0-1.23046875t-0.02734375-1.5927734375t-0.095703125-1.708984375t-0.177734375-1.5517578125t-0.2802734375-1.12109375t-0.4169921875-0.4375q-0.341796875,0-0.4921875,0.3828125t-0.2529296875,0.970703125t-0.1572265625,1.244140625t-0.150390625,1.244140625t-0.3076171875,0.9638671875t-0.5810546875,0.3759765625q-0.396484375,0-0.697265625-0.3759765625t-0.5947265625-0.9365234375t-0.587890625-1.203125t-0.6494140625-1.203125q-0.35546875-0.57421875-0.765625-0.9296875q-0.369140625-0.341796875-0.833984375-0.328125l-0.068359375,0q-0.615234375,0.02734375-0.9638671875,0.4443359375t-0.533203125,1.0185546875t-0.2255859375,1.2919921875t-0.041015625,1.2099609375q0,0.4921875,0.08203125,1.1484375q0.0546875,0.4375,0.0546875,0.833984375q0,0.205078125-0.013671875,0.396484375q-0.041015625,0.57421875-0.3076171875,0.9638671875t-0.9912109375,0.3896484375q-0.2734375,0-0.68359375-0.0546875t-0.546875-0.369140625q-0.314453125-0.560546875-0.478515625-1.4150390625t-0.24609375-1.763671875t-0.095703125-1.8046875t-0.013671875-1.5380859375q0-0.451171875-0.0341796875-0.9091796875z M81.8054296875,33.572265625q0-1.2578125,0.2939453125-2.4677734375t0.4990234375-2.4130859375q0.0546875-0.314453125,0.4306640625-0.3896484375t0.6357421875-0.0751953125q0.451171875,0,0.724609375,0.13671875q0.109375,0.0546875,0.205078125,0.123046875t0.095703125,0.177734375q0,1.17578125-0.2802734375,2.296875t-0.2802734375,2.37890625q0,0.423828125,0.0615234375,0.7998046875t0.1162109375,0.7451171875l0.08203125,0.396484375q0,0.109375,0.013671875,0.19140625t0.041015625,0.19140625q0,0.24609375-0.3486328125,0.3349609375t-0.6083984375,0.0888671875q-0.396484375,0-0.7314453125-0.1572265625t-0.5263671875-0.5400390625l-0.19140625-0.396484375q-0.1640625-0.314453125-0.1640625-0.7041015625t-0.068359375-0.7177734375z M82.6804296875,25.341796875l0-0.259765625q0-0.642578125,0.3212890625-1.1484375t0.9638671875-0.505859375q0.08203125,0,0.1572265625,0.013671875t0.1572265625,0.013671875q0.1640625,0.02734375,0.4306640625,0.1298828125t0.2666015625,0.3212890625l0,0.02734375q-0.0546875,0.109375-0.068359375,0.2255859375t-0.068359375,0.1982421875l0.02734375-0.02734375q-0.1640625,0.423828125-0.2666015625,0.68359375t-0.2255859375,0.4169921875t-0.3076171875,0.2255859375t-0.5263671875,0.068359375q-0.0546875,0-0.19140625-0.013671875t-0.2939453125-0.0546875t-0.2666015625-0.109375t-0.109375-0.205078125z M87.77552734375,30.072265625q0-0.560546875,0.1982421875-0.943359375t0.8408203125-0.3828125q0.24609375,0,0.615234375,0.0751953125t0.423828125,0.3759765625q0.13671875,0.806640625,0.150390625,1.75t0.095703125,1.77734375q0.314453125-0.615234375,0.806640625-1.326171875t1.12109375-1.3125t1.3671875-0.998046875t1.50390625-0.396484375q0.0546875,0,0.205078125,0.041015625t0.2802734375,0.1162109375t0.1572265625,0.1708984375t-0.150390625,0.177734375q-0.0546875,0.1640625-0.232421875,0.1982421875t-0.314453125,0.0341796875q-0.08203125,0-0.259765625-0.068359375q-1.01171875,0.533203125-1.72265625,1.44921875t-1.162109375,2.0302734375t-0.65625,2.3515625t-0.205078125,2.4130859375q0,0.587890625-0.2666015625,0.7109375t-0.8544921875,0.123046875q-0.314453125,0-0.6630859375-0.068359375t-0.4853515625-0.4375q-0.24609375-0.779296875-0.4033203125-1.791015625t-0.2392578125-2.0849609375t-0.1162109375-2.1123046875t-0.0341796875-1.873046875z"/><path fill="#" d=""/></svg>
